<svg width="29" height="28" viewBox="0 0 29 28" fill="none" xmlns="http://www.w3.org/2000/svg">
<g clip-path="url(#clip0_2_2367)" filter="url(#filter0_dd_2_2367)">
<g clip-path="url(#clip1_2_2367)">
<path fill-rule="evenodd" clip-rule="evenodd" d="M16.4851 15.6191C17.2281 14.133 17.729 11.9799 17.729 9.52372C17.729 6.50381 15.8472 3.73955 14.489 2.16396C14.4633 2.1341 14.4423 2.12176 14.4303 2.11627C14.4173 2.11032 14.4058 2.10826 14.3956 2.10826C14.3855 2.10826 14.3739 2.11032 14.3609 2.11627C14.349 2.12176 14.328 2.1341 14.3022 2.16396C12.944 3.73955 11.0623 6.50381 11.0623 9.52372C11.0623 11.9799 11.5631 14.133 12.3062 15.6191C13.092 17.1908 13.9133 17.619 14.3956 17.619C14.8779 17.619 15.6993 17.1908 16.4851 15.6191ZM19.15 9.16145C19.7191 9.03235 20.2808 8.95477 20.8096 8.91208C21.1918 7.50276 21.1335 5.98761 20.9683 4.82781C20.9636 4.79541 20.955 4.78018 20.9516 4.77497C20.9476 4.76879 20.944 4.7658 20.9413 4.76407C20.9385 4.76234 20.9342 4.76033 20.927 4.75937C20.9208 4.75856 20.9033 4.75724 20.872 4.76698C20.1223 5.00054 19.2489 5.34596 18.4205 5.83447C18.2432 5.37977 18.042 4.94301 17.8266 4.52747C18.7544 3.99736 19.6918 3.63835 20.4472 3.40305C21.3534 3.12076 22.2488 3.68676 22.3826 4.62639C22.542 5.74589 22.6329 7.31004 22.2897 8.87237C22.3307 8.87338 22.3711 8.87457 22.411 8.87589C23.3596 8.9074 24.019 9.73648 23.8363 10.6678C23.503 12.3665 22.6751 14.9963 20.6417 16.6135C18.5237 18.2982 16.2049 19.1849 14.5008 19.1115C12.7966 19.1849 10.4778 18.2982 8.35976 16.6135C6.32648 14.9963 5.49853 12.3665 5.16525 10.6678C4.98252 9.73648 5.64195 8.9074 6.59054 8.87589C6.63044 8.87457 6.67088 8.87338 6.71184 8.87237C6.36871 7.31004 6.45951 5.74589 6.61894 4.62639C6.75277 3.68676 7.64823 3.12076 8.5544 3.40305C9.26558 3.6246 10.1383 3.95584 11.0124 4.43633C10.7947 4.84909 10.5906 5.28333 10.4097 5.73579C9.63322 5.29902 8.82774 4.98449 8.12951 4.76698C8.09826 4.75724 8.08077 4.75856 8.0746 4.75937C8.06732 4.76033 8.06306 4.76234 8.06032 4.76407C8.05757 4.7658 8.05393 4.76879 8.04994 4.77497C8.04655 4.78018 8.03786 4.79541 8.03325 4.82781C7.86807 5.98761 7.80968 7.50276 8.19197 8.91208C8.65611 8.94956 9.1456 9.0139 9.64317 9.11638C9.79962 5.73196 11.8642 2.80427 13.2202 1.23122C13.8541 0.495843 14.9372 0.495842 15.5711 1.23122C16.9331 2.81124 19.0099 5.75797 19.15 9.16145ZM17.3485 16.9958C18.3132 15.4688 18.9753 13.2103 19.1252 10.6391C20.254 10.3349 21.4198 10.2723 22.3636 10.3037C22.3963 10.3048 22.4123 10.3117 22.4179 10.3146C22.4245 10.3178 22.4278 10.3211 22.4298 10.3237C22.4318 10.3262 22.4343 10.3303 22.436 10.3374C22.4376 10.3434 22.4408 10.3607 22.4344 10.3928C22.1183 12.004 21.3745 14.2053 19.7525 15.4955C18.9371 16.1441 18.1172 16.6407 17.3485 16.9958ZM11.3539 16.8517C10.6735 16.5104 9.95956 16.0607 9.24903 15.4955C7.62704 14.2053 6.88321 12.004 6.5671 10.3928C6.56079 10.3607 6.56399 10.3434 6.56547 10.3374C6.5672 10.3303 6.56967 10.3262 6.57169 10.3237C6.57371 10.3211 6.57707 10.3178 6.58363 10.3146C6.58919 10.3117 6.60527 10.3048 6.63797 10.3037C7.52236 10.2743 8.60174 10.3273 9.66293 10.5845C9.80224 13.0985 10.4308 15.3173 11.3539 16.8517Z" fill="#31775A"/>
</g>
</g>
<defs>
<filter id="filter0_dd_2_2367" x="0.5" y="0" width="28" height="28" filterUnits="userSpaceOnUse" color-interpolation-filters="sRGB">
<feFlood flood-opacity="0" result="BackgroundImageFix"/>
<feColorMatrix in="SourceAlpha" type="matrix" values="0 0 0 0 0 0 0 0 0 0 0 0 0 0 0 0 0 0 127 0" result="hardAlpha"/>
<feOffset dy="4"/>
<feGaussianBlur stdDeviation="2"/>
<feComposite in2="hardAlpha" operator="out"/>
<feColorMatrix type="matrix" values="0 0 0 0 0 0 0 0 0 0 0 0 0 0 0 0 0 0 0.25 0"/>
<feBlend mode="normal" in2="BackgroundImageFix" result="effect1_dropShadow_2_2367"/>
<feColorMatrix in="SourceAlpha" type="matrix" values="0 0 0 0 0 0 0 0 0 0 0 0 0 0 0 0 0 0 127 0" result="hardAlpha"/>
<feOffset dy="4"/>
<feGaussianBlur stdDeviation="2"/>
<feComposite in2="hardAlpha" operator="out"/>
<feColorMatrix type="matrix" values="0 0 0 0 0 0 0 0 0 0 0 0 0 0 0 0 0 0 0.25 0"/>
<feBlend mode="normal" in2="effect1_dropShadow_2_2367" result="effect2_dropShadow_2_2367"/>
<feBlend mode="normal" in="SourceGraphic" in2="effect2_dropShadow_2_2367" result="shape"/>
</filter>
<clipPath id="clip0_2_2367">
<rect width="20" height="20" fill="white" transform="translate(4.5)"/>
</clipPath>
<clipPath id="clip1_2_2367">
<rect width="20" height="20" fill="white" transform="translate(4.5)"/>
</clipPath>
</defs>
</svg>
